Coordinates
version=1
nRows=26
nColumns=22
inDegrees=yes

Units are S.I. units (second, meters, Newtons, ...)
If the header above contains a line with 'inDegrees', this indicates whether rotational values are in degrees (yes) or radians (no).

endheader
time	pelvis_tilt	pelvis_list	pelvis_rotation	pelvis_tx	pelvis_ty	pelvis_tz	hip_flexion_r	hip_adduction_r	hip_rotation_r	knee_angle_r	ankle_angle_r	subtalar_angle_r	hip_flexion_l	hip_adduction_l	hip_rotation_l	knee_angle_l	ankle_angle_l	subtalar_angle_l	lumbar_extension	lumbar_bending	lumbar_rotation
      0.01000000	      4.38812744	     -2.40323781	      3.86848438	      0.18219693	      0.94484178	      1.21703225	     -1.77794477	      5.94498745	     -4.80422045	    -17.28793357	     10.15552108	    -13.61847149	      1.93799492	     -4.49618329	     -8.06686218	    -24.13876617	     27.05254468	      2.94567123	    -12.29589502	      3.41499041	    -10.10794507
      0.02000000	      4.50707250	     -2.55412373	      3.95503168	      0.18284132	      0.94443262	      1.21740690	     -1.90506835	      6.16010843	     -4.81819190	    -17.37577327	     10.22395287	    -13.72149775	      2.24389890	     -4.71185987	     -7.62406527	    -25.01270118	     27.23885431	      3.04429617	    -12.46086629	      3.65134156	     -9.99975728
      0.03000000	      4.59528621	     -2.73438561	      4.08474925	      0.18357956	      0.94386061	      1.21776084	     -1.97965784	      6.40506044	     -4.88026374	    -17.50923406	     10.37049070	    -13.78635673	      2.72985052	     -4.95301830	     -7.03900758	    -26.15837845	     27.40779145	      3.13426251	    -12.60045664	      3.93215845	     -9.89752826
      0.04000000	      4.66264796	     -2.93834549	      4.25048801	      0.18442128	      0.94319153	      1.21805273	     -2.03130914	      6.66953141	     -5.00049727	    -17.64632170	     10.53033282	    -13.83819640	      3.36455639	     -5.20110799	     -6.32174668	    -27.53671127	     27.52192164	      3.19146638	    -12.72386445	      4.24971829	     -9.75269310
      0.05000000	      4.73974012	     -3.15378092	      4.45398419	      0.18534548	      0.94250411	      1.21824332	     -2.09314626	      6.94228887	     -5.15917298	    -17.78821304	     10.70910202	    -13.85240424	      4.09794886	     -5.43331005	     -5.47831864	    -29.10815705	     27.57815389	      3.19306007	    -12.86678755	      4.59114785	     -9.60135758
      0.06000000	      4.77424882	     -3.36893502	      4.67964042	      0.18632730	      0.94175397	      1.21833298	     -2.09855748	      7.19796119	     -5.40035084	    -17.94571120	     10.91745271	    -13.80758938	      4.97609767	     -5.62343736	     -4.52766859	    -30.84866454	     27.51280889	      3.09181276	    -12.96960982	      4.93127780	     -9.38502627
      0.07000000	      4.81512053	     -3.56749153	      4.93740807	      0.18736746	      0.94104241	      1.21828362	     -2.11347295	      7.42845688	     -5.67372473	    -18.10106254	     11.18519790	    -13.65544232	      5.92455637	     -5.75380439	     -3.49823026	    -32.70799319	     27.35801709	      2.87220148	    -13.08885818	      5.26086543	     -9.19071027
      0.08000000	      4.89004544	     -3.74417594	      5.24242868	      0.18852190	      0.94044877	      1.21805207	     -2.19427312	      7.62970800	     -6.02097109	    -18.20735312	     11.52221158	    -13.39962674	      6.87479197	     -5.80764733	     -2.36885492	    -34.60460872	     27.13387073	      2.58354661	    -13.24791064	      5.57941086	     -9.00723070
      0.09000000	      4.89834116	     -3.89062976	      5.54195525	      0.18979623	      0.93982954	      1.21776037	     -2.19028580	      7.77578896	     -6.44785824	    -18.34882032	     11.97968811	    -12.86651167	      7.92809435	     -5.79107126	     -1.26975702	    -36.52597785	     26.75181291	      2.01192983	    -13.32594207	      5.84170749	     -8.76717259
      0.10000000	      4.94542700	     -3.99297989	      5.87937945	      0.19125193	      0.93939115	      1.21728662	     -2.27015278	      7.86482104	     -6.96217493	    -18.43071301	     12.57447883	    -12.12373866	      8.92136891	     -5.68381689	     -0.15587125	    -38.35655600	     26.29556305	      1.27723830	    -13.44005417	      6.06708172	     -8.56332972
      0.11000000	      4.99773228	     -4.04768885	      6.22726529	      0.19290181	      0.93909957	      1.21669995	     -2.38775855	      7.88992221	     -7.54431145	    -18.47607132	     13.32202410	    -11.05392151	      9.86968941	     -5.49020286	      0.92388959	    -40.04465650	     25.77298211	      0.23997776	    -13.55337877	      6.23471361	     -8.36642706
      0.12000000	      5.05539337	     -4.04714132	      6.58527286	      0.19479057	      0.93898225	      1.21600203	     -2.56800554	      7.84490652	     -8.20118649	    -18.44520205	     14.20646555	     -9.66458983	     10.74960861	     -5.20909896	      1.94867049	    -41.52782605	     25.21114764	     -1.11784965	    -13.65856908	      6.33503696	     -8.17057828
      0.13000000	      5.13024337	     -3.99074800	      6.94459133	      0.19684792	      0.93903766	      1.21521779	     -2.79325981	      7.72861354	     -8.93395509	    -18.39781505	     15.16560158	     -8.04773273	     11.55663111	     -4.85446401	      2.88244077	    -42.79155918	     24.63975754	     -2.72773781	    -13.78808337	      6.37192959	     -7.99965511
      0.14000000	      5.19515490	     -3.87855431	      7.29637484	      0.19909469	      0.93922490	      1.21438944	     -3.06133886	      7.55198940	     -9.68898534	    -18.28894529	     16.09454740	     -6.35734419	     12.31745823	     -4.43707200	      3.69444054	    -43.81219429	     24.08509416	     -4.45119748	    -13.90569565	      6.33664336	     -7.82857237
      0.15000000	      5.24496376	     -3.72312341	      7.62460996	      0.20150474	      0.93950587	      1.21357518	     -3.36718237	      7.34065921	    -10.40324854	    -18.11845397	     16.88323038	     -4.80454175	     13.05415279	     -3.99218904	      4.33432228	    -44.60114605	     23.57784753	     -6.09116404	    -14.01320698	      6.23817500	     -7.64549167
      0.16000000	      5.27142309	     -3.53602857	      7.91845277	      0.20404252	      0.93984462	      1.21282297	     -3.70966730	      7.12406547	    -10.96680247	    -17.86586411	     17.47304658	     -3.54852107	     13.78283762	     -3.53813383	      4.80417874	    -45.16153236	     23.14424785	     -7.49514442	    -14.11039854	      6.08564245	     -7.44701256
      0.17000000	      5.26958950	     -3.33187480	      8.17271159	      0.20672316	      0.94019467	      1.21214961	     -4.07566647	      6.91530472	    -11.38742918	    -17.54459055	     17.85190848	     -2.65748237	     14.51900057	     -3.11005429	      5.06639966	    -45.51038771	     22.77335333	     -8.62146818	    -14.18602423	      5.89364183	     -7.21750755
      0.18000000	      5.23113768	     -3.09762907	      8.38709291	      0.20954584	      0.94052057	      1.21155129	     -4.43541870	      6.68470740	    -11.73583721	    -17.20040344	     18.07444553	     -2.19008176	     15.26602287	     -2.70047062	      5.11532489	    -45.64950472	     22.39332116	     -9.41280628	    -14.23296383	      5.64550297	     -6.96615308
      0.19000000	      5.18515182	     -2.91303341	      8.52042333	      0.21250460	      0.94082968	      1.21110326	     -4.83103798	      6.53512712	    -11.84727654	    -16.77421072	     18.11206785	     -1.82363117	     16.00750521	     -2.41355800	      4.93781645	    -45.61492651	     22.08443209	    -10.32406391	    -14.28462699	      5.43653851	     -6.61239494
      0.20000000	      5.13112576	     -2.73744561	      8.63427431	      0.21563734	      0.94108994	      1.21070280	     -5.25596466	      6.40983466	    -11.88449587	    -16.29989474	     18.10873446	     -1.66907204	     16.73472659	     -2.19615395	      4.57685399	    -45.40303834	     21.76657229	    -11.16335403	    -14.32821167	      5.22910454	     -6.27836660
      0.21000000	      5.06621858	     -2.57232163	      8.68493215	      0.21893086	      0.94129215	      1.21038842	     -5.67737135	      6.29127453	    -11.85672507	    -15.83154244	     18.05495133	     -1.63128670	     17.43688285	     -2.05478887	      4.00859306	    -45.01830379	     21.39304819	    -12.01463465	    -14.37031186	      5.01926654	     -5.88223949
      0.22000000	      5.00901295	     -2.43524939	      8.72094389	      0.22239002	      0.94142914	      1.21006692	     -6.12384063	      6.20393892	    -11.81485531	    -15.34666355	     17.99805923	     -1.64522718	     18.10325502	     -1.98598571	      3.30657820	    -44.48465869	     20.95524820	    -12.99003487	    -14.42269180	      4.84471105	     -5.47633320
      0.23000000	      4.95020854	     -2.30797610	      8.69577260	      0.22602951	      0.94148496	      1.20981213	     -6.57000112	      6.11839431	    -11.71264112	    -14.88163533	     17.94291879	     -1.67725449	     18.72055310	     -1.98704615	      2.40937910	    -43.79662731	     20.47535040	    -13.92483033	    -14.48127046	      4.67127266	     -5.03900597
      0.24000000	      4.89782659	     -2.19915918	      8.62863946	      0.22984969	      0.94144738	      1.20957470	     -7.02046061	      6.04287397	    -11.58176538	    -14.44244200	     17.91497931	     -1.70407235	     19.28288043	     -2.05017329	      1.35859848	    -42.97336722	     19.94732973	    -14.77152093	    -14.55063517	      4.51666472	     -4.58379540
      0.25000000	      4.82613746	     -2.09698718	      8.51968781	      0.23384767	      0.94127692	      1.20933887	     -7.44390002	      5.95971767	    -11.40390899	    -14.03875430	     17.91901213	     -1.71018600	     19.80964292	     -2.14235404	      0.18270031	    -42.02074014	     19.36794253	    -15.37972503	    -14.60022906	      4.36502758	     -4.12556801
      0.26000000	      4.79265022	     -2.01413973	      8.40390791	      0.23800762	      0.94103754	      1.20904692	     -7.89714637	      5.88857214	    -11.28454141	    -13.67637757	     17.95372183	     -1.71023097	     20.25575968	     -2.26342142	     -1.06935985	    -40.97141133	     18.74258735	    -15.92511304	    -14.69971064	      4.24680330	     -3.70491265
